<mxfile host="app.diagrams.net" modified="2023-05-29T19:45:14.925Z" agent="Mozilla/5.0 (Windows NT 10.0; Win64; x64) AppleWebKit/537.36 (KHTML, like Gecko) Chrome/113.0.0.0 Safari/537.36" etag="FRuBcExkTOO_IoMj_HJZ" version="21.3.5" type="github">
  <diagram name="Page-1" id="XrU8lmBUITIBv5YUa5lT">
    <mxGraphModel dx="3969" dy="-2349" grid="1" gridSize="10" guides="1" tooltips="1" connect="1" arrows="1" fold="1" page="1" pageScale="1" pageWidth="850" pageHeight="1100" math="0" shadow="0">
      <root>
        <mxCell id="0" />
        <mxCell id="1" parent="0" />
        <mxCell id="bFwT0Dd9p4AA57UiHMBd-1" value="" style="rounded=0;whiteSpace=wrap;html=1;" vertex="1" parent="1">
          <mxGeometry x="-830" y="5150" width="1010" height="930" as="geometry" />
        </mxCell>
        <mxCell id="bFwT0Dd9p4AA57UiHMBd-2" value="Utilisateur" style="swimlane;fontStyle=1;align=center;verticalAlign=top;childLayout=stackLayout;horizontal=1;startSize=26;horizontalStack=0;resizeParent=1;resizeParentMax=0;resizeLast=0;collapsible=1;marginBottom=0;whiteSpace=wrap;html=1;" vertex="1" parent="1">
          <mxGeometry x="-800" y="5240" width="160" height="130" as="geometry" />
        </mxCell>
        <mxCell id="bFwT0Dd9p4AA57UiHMBd-3" value="+ idPersonnel : string&lt;br&gt;+ mailAdresse : string&lt;br&gt;+ password : string" style="text;strokeColor=none;fillColor=none;align=left;verticalAlign=top;spacingLeft=4;spacingRight=4;overflow=hidden;rotatable=0;points=[[0,0.5],[1,0.5]];portConstraint=eastwest;whiteSpace=wrap;html=1;" vertex="1" parent="bFwT0Dd9p4AA57UiHMBd-2">
          <mxGeometry y="26" width="160" height="54" as="geometry" />
        </mxCell>
        <mxCell id="bFwT0Dd9p4AA57UiHMBd-4" value="" style="line;strokeWidth=1;fillColor=none;align=left;verticalAlign=middle;spacingTop=-1;spacingLeft=3;spacingRight=3;rotatable=0;labelPosition=right;points=[];portConstraint=eastwest;strokeColor=inherit;" vertex="1" parent="bFwT0Dd9p4AA57UiHMBd-2">
          <mxGeometry y="80" width="160" height="8" as="geometry" />
        </mxCell>
        <mxCell id="bFwT0Dd9p4AA57UiHMBd-5" value="+ create_account()&lt;br&gt;+ delete_account()" style="text;strokeColor=none;fillColor=none;align=left;verticalAlign=top;spacingLeft=4;spacingRight=4;overflow=hidden;rotatable=0;points=[[0,0.5],[1,0.5]];portConstraint=eastwest;whiteSpace=wrap;html=1;" vertex="1" parent="bFwT0Dd9p4AA57UiHMBd-2">
          <mxGeometry y="88" width="160" height="42" as="geometry" />
        </mxCell>
        <mxCell id="bFwT0Dd9p4AA57UiHMBd-6" value="Patient" style="swimlane;fontStyle=1;align=center;verticalAlign=top;childLayout=stackLayout;horizontal=1;startSize=26;horizontalStack=0;resizeParent=1;resizeParentMax=0;resizeLast=0;collapsible=1;marginBottom=0;whiteSpace=wrap;html=1;" vertex="1" parent="1">
          <mxGeometry x="-790" y="5500" width="160" height="164" as="geometry" />
        </mxCell>
        <mxCell id="bFwT0Dd9p4AA57UiHMBd-7" value="+ idPatient : string&lt;br&gt;+ nomP : string&lt;br&gt;+ prénomP : string&lt;br&gt;+ ageP : int&lt;br&gt;+ adresseP : string&lt;br&gt;+ téléphoneP : string" style="text;strokeColor=none;fillColor=none;align=left;verticalAlign=top;spacingLeft=4;spacingRight=4;overflow=hidden;rotatable=0;points=[[0,0.5],[1,0.5]];portConstraint=eastwest;whiteSpace=wrap;html=1;" vertex="1" parent="bFwT0Dd9p4AA57UiHMBd-6">
          <mxGeometry y="26" width="160" height="104" as="geometry" />
        </mxCell>
        <mxCell id="bFwT0Dd9p4AA57UiHMBd-8" value="" style="line;strokeWidth=1;fillColor=none;align=left;verticalAlign=middle;spacingTop=-1;spacingLeft=3;spacingRight=3;rotatable=0;labelPosition=right;points=[];portConstraint=eastwest;strokeColor=inherit;" vertex="1" parent="bFwT0Dd9p4AA57UiHMBd-6">
          <mxGeometry y="130" width="160" height="8" as="geometry" />
        </mxCell>
        <mxCell id="bFwT0Dd9p4AA57UiHMBd-9" value="+ ajouter()" style="text;strokeColor=none;fillColor=none;align=left;verticalAlign=top;spacingLeft=4;spacingRight=4;overflow=hidden;rotatable=0;points=[[0,0.5],[1,0.5]];portConstraint=eastwest;whiteSpace=wrap;html=1;" vertex="1" parent="bFwT0Dd9p4AA57UiHMBd-6">
          <mxGeometry y="138" width="160" height="26" as="geometry" />
        </mxCell>
        <mxCell id="bFwT0Dd9p4AA57UiHMBd-10" value="DossierMédical" style="swimlane;fontStyle=1;align=center;verticalAlign=top;childLayout=stackLayout;horizontal=1;startSize=26;horizontalStack=0;resizeParent=1;resizeParentMax=0;resizeLast=0;collapsible=1;marginBottom=0;whiteSpace=wrap;html=1;" vertex="1" parent="1">
          <mxGeometry x="-390" y="5500" width="160" height="180" as="geometry">
            <mxRectangle x="-100" y="4620" width="130" height="30" as="alternateBounds" />
          </mxGeometry>
        </mxCell>
        <mxCell id="bFwT0Dd9p4AA57UiHMBd-11" value="+ idDossierMédical : string&lt;br&gt;+ date_créationDM : date&lt;br&gt;+ evolutionDM : string&lt;br&gt;+ observationDM : string" style="text;strokeColor=none;fillColor=none;align=left;verticalAlign=top;spacingLeft=4;spacingRight=4;overflow=hidden;rotatable=0;points=[[0,0.5],[1,0.5]];portConstraint=eastwest;whiteSpace=wrap;html=1;" vertex="1" parent="bFwT0Dd9p4AA57UiHMBd-10">
          <mxGeometry y="26" width="160" height="74" as="geometry" />
        </mxCell>
        <mxCell id="bFwT0Dd9p4AA57UiHMBd-12" value="" style="line;strokeWidth=1;fillColor=none;align=left;verticalAlign=middle;spacingTop=-1;spacingLeft=3;spacingRight=3;rotatable=0;labelPosition=right;points=[];portConstraint=eastwest;strokeColor=inherit;" vertex="1" parent="bFwT0Dd9p4AA57UiHMBd-10">
          <mxGeometry y="100" width="160" height="8" as="geometry" />
        </mxCell>
        <mxCell id="bFwT0Dd9p4AA57UiHMBd-13" value="+ ajouter()&lt;br&gt;+ rechercher()&lt;br&gt;+ consulter()&lt;br&gt;+ modifier()" style="text;strokeColor=none;fillColor=none;align=left;verticalAlign=top;spacingLeft=4;spacingRight=4;overflow=hidden;rotatable=0;points=[[0,0.5],[1,0.5]];portConstraint=eastwest;whiteSpace=wrap;html=1;" vertex="1" parent="bFwT0Dd9p4AA57UiHMBd-10">
          <mxGeometry y="108" width="160" height="72" as="geometry" />
        </mxCell>
        <mxCell id="bFwT0Dd9p4AA57UiHMBd-14" value="Consultation" style="swimlane;fontStyle=1;align=center;verticalAlign=top;childLayout=stackLayout;horizontal=1;startSize=26;horizontalStack=0;resizeParent=1;resizeParentMax=0;resizeLast=0;collapsible=1;marginBottom=0;whiteSpace=wrap;html=1;" vertex="1" parent="1">
          <mxGeometry x="-40" y="5480" width="160" height="240" as="geometry" />
        </mxCell>
        <mxCell id="bFwT0Dd9p4AA57UiHMBd-15" value="+ idConsultation : string&lt;br&gt;+ dateC : date&amp;nbsp;&lt;br&gt;+ idPersonnel : string&lt;br&gt;+ idPatient : string&amp;nbsp;&lt;br&gt;+ motifC : string&lt;br&gt;+ diagnosticC&amp;nbsp; : string&lt;br&gt;+ observationsC: string&lt;br&gt;+ descriptionH : string&amp;nbsp;&lt;br&gt;+ prescriptionC : string&lt;br&gt;+ tests_demandésC : string" style="text;strokeColor=none;fillColor=none;align=left;verticalAlign=top;spacingLeft=4;spacingRight=4;overflow=hidden;rotatable=0;points=[[0,0.5],[1,0.5]];portConstraint=eastwest;whiteSpace=wrap;html=1;" vertex="1" parent="bFwT0Dd9p4AA57UiHMBd-14">
          <mxGeometry y="26" width="160" height="154" as="geometry" />
        </mxCell>
        <mxCell id="bFwT0Dd9p4AA57UiHMBd-16" value="" style="line;strokeWidth=1;fillColor=none;align=left;verticalAlign=middle;spacingTop=-1;spacingLeft=3;spacingRight=3;rotatable=0;labelPosition=right;points=[];portConstraint=eastwest;strokeColor=inherit;" vertex="1" parent="bFwT0Dd9p4AA57UiHMBd-14">
          <mxGeometry y="180" width="160" height="8" as="geometry" />
        </mxCell>
        <mxCell id="bFwT0Dd9p4AA57UiHMBd-17" value="+ ajouter()&lt;br&gt;+ rechercher()&lt;br&gt;+ modifier()" style="text;strokeColor=none;fillColor=none;align=left;verticalAlign=top;spacingLeft=4;spacingRight=4;overflow=hidden;rotatable=0;points=[[0,0.5],[1,0.5]];portConstraint=eastwest;whiteSpace=wrap;html=1;" vertex="1" parent="bFwT0Dd9p4AA57UiHMBd-14">
          <mxGeometry y="188" width="160" height="52" as="geometry" />
        </mxCell>
        <mxCell id="bFwT0Dd9p4AA57UiHMBd-18" value="PersonnelMédical" style="swimlane;fontStyle=1;align=center;verticalAlign=top;childLayout=stackLayout;horizontal=1;startSize=26;horizontalStack=0;resizeParent=1;resizeParentMax=0;resizeLast=0;collapsible=1;marginBottom=0;whiteSpace=wrap;html=1;" vertex="1" parent="1">
          <mxGeometry x="-380" y="5210" width="160" height="160" as="geometry" />
        </mxCell>
        <mxCell id="bFwT0Dd9p4AA57UiHMBd-19" value="+ nomPers : string&lt;br&gt;+ prenomPers : string&lt;br&gt;+ spécialitéPers : string&lt;br&gt;+ statutPers : string&amp;nbsp;&lt;br&gt;+ qualificationsPers : string&lt;br&gt;+ adressePers : string&lt;br&gt;+ téléphonePers : int" style="text;strokeColor=none;fillColor=none;align=left;verticalAlign=top;spacingLeft=4;spacingRight=4;overflow=hidden;rotatable=0;points=[[0,0.5],[1,0.5]];portConstraint=eastwest;whiteSpace=wrap;html=1;" vertex="1" parent="bFwT0Dd9p4AA57UiHMBd-18">
          <mxGeometry y="26" width="160" height="114" as="geometry" />
        </mxCell>
        <mxCell id="bFwT0Dd9p4AA57UiHMBd-20" value="" style="line;strokeWidth=1;fillColor=none;align=left;verticalAlign=middle;spacingTop=-1;spacingLeft=3;spacingRight=3;rotatable=0;labelPosition=right;points=[];portConstraint=eastwest;strokeColor=inherit;" vertex="1" parent="bFwT0Dd9p4AA57UiHMBd-18">
          <mxGeometry y="140" width="160" height="20" as="geometry" />
        </mxCell>
        <mxCell id="bFwT0Dd9p4AA57UiHMBd-21" value="Hospitalisation" style="swimlane;fontStyle=1;align=center;verticalAlign=top;childLayout=stackLayout;horizontal=1;startSize=26;horizontalStack=0;resizeParent=1;resizeParentMax=0;resizeLast=0;collapsible=1;marginBottom=0;whiteSpace=wrap;html=1;" vertex="1" parent="1">
          <mxGeometry x="-390" y="5790" width="160" height="250" as="geometry" />
        </mxCell>
        <mxCell id="bFwT0Dd9p4AA57UiHMBd-22" value="+ idHospitalisation : string&lt;br&gt;+ date_débutH : date&lt;br&gt;+ date_finH : date&lt;br&gt;+ idPersonnel : string&lt;br style=&quot;border-color: var(--border-color);&quot;&gt;+ idPatient : string&amp;nbsp;&lt;br&gt;+ motifH : string&lt;br&gt;+ diagnoticH : string&lt;br&gt;+ descriptionH : string&amp;nbsp;&lt;br&gt;+ observationsH : string&lt;br&gt;+ prescriptionC : string&lt;br&gt;+ chambreH : int" style="text;strokeColor=none;fillColor=none;align=left;verticalAlign=top;spacingLeft=4;spacingRight=4;overflow=hidden;rotatable=0;points=[[0,0.5],[1,0.5]];portConstraint=eastwest;whiteSpace=wrap;html=1;" vertex="1" parent="bFwT0Dd9p4AA57UiHMBd-21">
          <mxGeometry y="26" width="160" height="164" as="geometry" />
        </mxCell>
        <mxCell id="bFwT0Dd9p4AA57UiHMBd-23" value="" style="line;strokeWidth=1;fillColor=none;align=left;verticalAlign=middle;spacingTop=-1;spacingLeft=3;spacingRight=3;rotatable=0;labelPosition=right;points=[];portConstraint=eastwest;strokeColor=inherit;" vertex="1" parent="bFwT0Dd9p4AA57UiHMBd-21">
          <mxGeometry y="190" width="160" height="8" as="geometry" />
        </mxCell>
        <mxCell id="bFwT0Dd9p4AA57UiHMBd-24" value="+ ajouter()&lt;br&gt;+ rechercher()&lt;br&gt;+ modifier()" style="text;strokeColor=none;fillColor=none;align=left;verticalAlign=top;spacingLeft=4;spacingRight=4;overflow=hidden;rotatable=0;points=[[0,0.5],[1,0.5]];portConstraint=eastwest;whiteSpace=wrap;html=1;" vertex="1" parent="bFwT0Dd9p4AA57UiHMBd-21">
          <mxGeometry y="198" width="160" height="52" as="geometry" />
        </mxCell>
        <mxCell id="bFwT0Dd9p4AA57UiHMBd-25" value="Médicament" style="swimlane;fontStyle=1;align=center;verticalAlign=top;childLayout=stackLayout;horizontal=1;startSize=26;horizontalStack=0;resizeParent=1;resizeParentMax=0;resizeLast=0;collapsible=1;marginBottom=0;whiteSpace=wrap;html=1;" vertex="1" parent="1">
          <mxGeometry x="-60" y="5820" width="180" height="210" as="geometry" />
        </mxCell>
        <mxCell id="bFwT0Dd9p4AA57UiHMBd-26" value="+ idMédicament : string&lt;br&gt;+ nomM : string&amp;nbsp;&lt;br&gt;+ idPersonnel : string&lt;br style=&quot;border-color: var(--border-color);&quot;&gt;+ idPatient : string&amp;nbsp;&lt;br&gt;+ pososlogieM : string&lt;br&gt;+ formeM : string&amp;nbsp;&lt;br&gt;+ date_prescriptionM : date&lt;br&gt;+ effets_secondairesM : string" style="text;strokeColor=none;fillColor=none;align=left;verticalAlign=top;spacingLeft=4;spacingRight=4;overflow=hidden;rotatable=0;points=[[0,0.5],[1,0.5]];portConstraint=eastwest;whiteSpace=wrap;html=1;" vertex="1" parent="bFwT0Dd9p4AA57UiHMBd-25">
          <mxGeometry y="26" width="180" height="124" as="geometry" />
        </mxCell>
        <mxCell id="bFwT0Dd9p4AA57UiHMBd-27" value="" style="line;strokeWidth=1;fillColor=none;align=left;verticalAlign=middle;spacingTop=-1;spacingLeft=3;spacingRight=3;rotatable=0;labelPosition=right;points=[];portConstraint=eastwest;strokeColor=inherit;" vertex="1" parent="bFwT0Dd9p4AA57UiHMBd-25">
          <mxGeometry y="150" width="180" height="8" as="geometry" />
        </mxCell>
        <mxCell id="bFwT0Dd9p4AA57UiHMBd-28" value="+ ajouter()&lt;br&gt;+ rechercher()&lt;br&gt;+ supprimer()" style="text;strokeColor=none;fillColor=none;align=left;verticalAlign=top;spacingLeft=4;spacingRight=4;overflow=hidden;rotatable=0;points=[[0,0.5],[1,0.5]];portConstraint=eastwest;whiteSpace=wrap;html=1;" vertex="1" parent="bFwT0Dd9p4AA57UiHMBd-25">
          <mxGeometry y="158" width="180" height="52" as="geometry" />
        </mxCell>
        <mxCell id="bFwT0Dd9p4AA57UiHMBd-29" value="AnalyseEtTest" style="swimlane;fontStyle=1;align=center;verticalAlign=top;childLayout=stackLayout;horizontal=1;startSize=26;horizontalStack=0;resizeParent=1;resizeParentMax=0;resizeLast=0;collapsible=1;marginBottom=0;whiteSpace=wrap;html=1;" vertex="1" parent="1">
          <mxGeometry x="-30" y="5180" width="160" height="200" as="geometry" />
        </mxCell>
        <mxCell id="bFwT0Dd9p4AA57UiHMBd-30" value="+ idTest : string&amp;nbsp;&lt;br&gt;+ nomT : string&lt;br&gt;+ idPersonnel : string&lt;br style=&quot;border-color: var(--border-color);&quot;&gt;+ idPatient : string&amp;nbsp;&lt;br&gt;+ descriptionT : string&lt;br&gt;+ typeT : string&amp;nbsp;&lt;br&gt;+ résultatT : string&amp;nbsp;&lt;br&gt;+ dateT : string&lt;br&gt;&amp;nbsp;" style="text;strokeColor=none;fillColor=none;align=left;verticalAlign=top;spacingLeft=4;spacingRight=4;overflow=hidden;rotatable=0;points=[[0,0.5],[1,0.5]];portConstraint=eastwest;whiteSpace=wrap;html=1;" vertex="1" parent="bFwT0Dd9p4AA57UiHMBd-29">
          <mxGeometry y="26" width="160" height="124" as="geometry" />
        </mxCell>
        <mxCell id="bFwT0Dd9p4AA57UiHMBd-31" value="" style="line;strokeWidth=1;fillColor=none;align=left;verticalAlign=middle;spacingTop=-1;spacingLeft=3;spacingRight=3;rotatable=0;labelPosition=right;points=[];portConstraint=eastwest;strokeColor=inherit;" vertex="1" parent="bFwT0Dd9p4AA57UiHMBd-29">
          <mxGeometry y="150" width="160" height="8" as="geometry" />
        </mxCell>
        <mxCell id="bFwT0Dd9p4AA57UiHMBd-32" value="+ ajouter()&lt;br&gt;+ modifier()" style="text;strokeColor=none;fillColor=none;align=left;verticalAlign=top;spacingLeft=4;spacingRight=4;overflow=hidden;rotatable=0;points=[[0,0.5],[1,0.5]];portConstraint=eastwest;whiteSpace=wrap;html=1;" vertex="1" parent="bFwT0Dd9p4AA57UiHMBd-29">
          <mxGeometry y="158" width="160" height="42" as="geometry" />
        </mxCell>
        <mxCell id="bFwT0Dd9p4AA57UiHMBd-33" value="naissance" style="swimlane;fontStyle=1;align=center;verticalAlign=top;childLayout=stackLayout;horizontal=1;startSize=26;horizontalStack=0;resizeParent=1;resizeParentMax=0;resizeLast=0;collapsible=1;marginBottom=0;whiteSpace=wrap;html=1;" vertex="1" parent="1">
          <mxGeometry x="-700" y="5800" width="160" height="178" as="geometry" />
        </mxCell>
        <mxCell id="bFwT0Dd9p4AA57UiHMBd-34" value="+ idNaissance : string&lt;br&gt;+ dateN : date&lt;br&gt;+ lieuN : string&amp;nbsp;&lt;br&gt;+ poidsN : int&lt;br&gt;+ tailleN : int&lt;br&gt;+ sexeN : string&lt;br&gt;+ scoreapgarN : string&lt;br&gt;+ nom_mère : string&amp;nbsp;&lt;br&gt;+ idPersonnel : string" style="text;strokeColor=none;fillColor=none;align=left;verticalAlign=top;spacingLeft=4;spacingRight=4;overflow=hidden;rotatable=0;points=[[0,0.5],[1,0.5]];portConstraint=eastwest;whiteSpace=wrap;html=1;" vertex="1" parent="bFwT0Dd9p4AA57UiHMBd-33">
          <mxGeometry y="26" width="160" height="144" as="geometry" />
        </mxCell>
        <mxCell id="bFwT0Dd9p4AA57UiHMBd-35" value="" style="line;strokeWidth=1;fillColor=none;align=left;verticalAlign=middle;spacingTop=-1;spacingLeft=3;spacingRight=3;rotatable=0;labelPosition=right;points=[];portConstraint=eastwest;strokeColor=inherit;" vertex="1" parent="bFwT0Dd9p4AA57UiHMBd-33">
          <mxGeometry y="170" width="160" height="8" as="geometry" />
        </mxCell>
        <mxCell id="bFwT0Dd9p4AA57UiHMBd-36" value="" style="endArrow=block;endSize=16;endFill=0;html=1;rounded=0;" edge="1" parent="1" source="bFwT0Dd9p4AA57UiHMBd-19" target="bFwT0Dd9p4AA57UiHMBd-3">
          <mxGeometry width="160" relative="1" as="geometry">
            <mxPoint x="-440" y="5300" as="sourcePoint" />
            <mxPoint x="-20" y="5140" as="targetPoint" />
          </mxGeometry>
        </mxCell>
        <mxCell id="bFwT0Dd9p4AA57UiHMBd-37" value="" style="endArrow=none;html=1;edgeStyle=orthogonalEdgeStyle;rounded=0;" edge="1" parent="1" source="bFwT0Dd9p4AA57UiHMBd-7" target="bFwT0Dd9p4AA57UiHMBd-11">
          <mxGeometry relative="1" as="geometry">
            <mxPoint x="-560" y="5560" as="sourcePoint" />
            <mxPoint x="-400" y="5560" as="targetPoint" />
            <Array as="points">
              <mxPoint x="-530" y="5580" />
              <mxPoint x="-530" y="5580" />
            </Array>
          </mxGeometry>
        </mxCell>
        <mxCell id="bFwT0Dd9p4AA57UiHMBd-38" value="1" style="edgeLabel;resizable=0;html=1;align=left;verticalAlign=bottom;" connectable="0" vertex="1" parent="bFwT0Dd9p4AA57UiHMBd-37">
          <mxGeometry x="-1" relative="1" as="geometry" />
        </mxCell>
        <mxCell id="bFwT0Dd9p4AA57UiHMBd-39" value="1" style="edgeLabel;resizable=0;html=1;align=right;verticalAlign=bottom;" connectable="0" vertex="1" parent="bFwT0Dd9p4AA57UiHMBd-37">
          <mxGeometry x="1" relative="1" as="geometry" />
        </mxCell>
        <mxCell id="bFwT0Dd9p4AA57UiHMBd-40" value="" style="endArrow=none;html=1;edgeStyle=orthogonalEdgeStyle;rounded=0;" edge="1" parent="1" source="bFwT0Dd9p4AA57UiHMBd-11" target="bFwT0Dd9p4AA57UiHMBd-15">
          <mxGeometry relative="1" as="geometry">
            <mxPoint x="-200" y="5560" as="sourcePoint" />
            <mxPoint x="-40" y="5560" as="targetPoint" />
            <Array as="points">
              <mxPoint x="-160" y="5573" />
              <mxPoint x="-160" y="5573" />
            </Array>
          </mxGeometry>
        </mxCell>
        <mxCell id="bFwT0Dd9p4AA57UiHMBd-41" value="1" style="edgeLabel;resizable=0;html=1;align=left;verticalAlign=bottom;" connectable="0" vertex="1" parent="bFwT0Dd9p4AA57UiHMBd-40">
          <mxGeometry x="-1" relative="1" as="geometry" />
        </mxCell>
        <mxCell id="bFwT0Dd9p4AA57UiHMBd-42" value="0..*" style="edgeLabel;resizable=0;html=1;align=right;verticalAlign=bottom;" connectable="0" vertex="1" parent="bFwT0Dd9p4AA57UiHMBd-40">
          <mxGeometry x="1" relative="1" as="geometry" />
        </mxCell>
        <mxCell id="bFwT0Dd9p4AA57UiHMBd-43" value="" style="endArrow=none;html=1;edgeStyle=orthogonalEdgeStyle;rounded=0;" edge="1" parent="1" source="bFwT0Dd9p4AA57UiHMBd-10" target="bFwT0Dd9p4AA57UiHMBd-21">
          <mxGeometry relative="1" as="geometry">
            <mxPoint x="-370" y="5720" as="sourcePoint" />
            <mxPoint x="-210" y="5720" as="targetPoint" />
          </mxGeometry>
        </mxCell>
        <mxCell id="bFwT0Dd9p4AA57UiHMBd-44" value="1" style="edgeLabel;resizable=0;html=1;align=left;verticalAlign=bottom;" connectable="0" vertex="1" parent="bFwT0Dd9p4AA57UiHMBd-43">
          <mxGeometry x="-1" relative="1" as="geometry">
            <mxPoint y="20" as="offset" />
          </mxGeometry>
        </mxCell>
        <mxCell id="bFwT0Dd9p4AA57UiHMBd-45" value="0..*" style="edgeLabel;resizable=0;html=1;align=right;verticalAlign=bottom;" connectable="0" vertex="1" parent="bFwT0Dd9p4AA57UiHMBd-43">
          <mxGeometry x="1" relative="1" as="geometry" />
        </mxCell>
        <mxCell id="bFwT0Dd9p4AA57UiHMBd-46" value="" style="endArrow=none;html=1;edgeStyle=orthogonalEdgeStyle;rounded=0;" edge="1" parent="1" source="bFwT0Dd9p4AA57UiHMBd-10" target="bFwT0Dd9p4AA57UiHMBd-25">
          <mxGeometry relative="1" as="geometry">
            <mxPoint x="-170" y="5770" as="sourcePoint" />
            <mxPoint x="-10" y="5770" as="targetPoint" />
            <Array as="points">
              <mxPoint x="-110" y="5660" />
              <mxPoint x="-110" y="5840" />
            </Array>
          </mxGeometry>
        </mxCell>
        <mxCell id="bFwT0Dd9p4AA57UiHMBd-47" value="0..*" style="edgeLabel;resizable=0;html=1;align=left;verticalAlign=bottom;" connectable="0" vertex="1" parent="bFwT0Dd9p4AA57UiHMBd-46">
          <mxGeometry x="-1" relative="1" as="geometry" />
        </mxCell>
        <mxCell id="bFwT0Dd9p4AA57UiHMBd-48" value="0..*" style="edgeLabel;resizable=0;html=1;align=right;verticalAlign=bottom;" connectable="0" vertex="1" parent="bFwT0Dd9p4AA57UiHMBd-46">
          <mxGeometry x="1" relative="1" as="geometry" />
        </mxCell>
        <mxCell id="bFwT0Dd9p4AA57UiHMBd-49" value="" style="endArrow=none;html=1;edgeStyle=orthogonalEdgeStyle;rounded=0;" edge="1" parent="1" source="bFwT0Dd9p4AA57UiHMBd-33" target="bFwT0Dd9p4AA57UiHMBd-10">
          <mxGeometry relative="1" as="geometry">
            <mxPoint x="-615" y="5750" as="sourcePoint" />
            <mxPoint x="-455" y="5750" as="targetPoint" />
            <Array as="points">
              <mxPoint x="-510" y="5810" />
              <mxPoint x="-510" y="5670" />
            </Array>
          </mxGeometry>
        </mxCell>
        <mxCell id="bFwT0Dd9p4AA57UiHMBd-50" value="1" style="edgeLabel;resizable=0;html=1;align=left;verticalAlign=bottom;" connectable="0" vertex="1" parent="bFwT0Dd9p4AA57UiHMBd-49">
          <mxGeometry x="-1" relative="1" as="geometry" />
        </mxCell>
        <mxCell id="bFwT0Dd9p4AA57UiHMBd-51" value="1" style="edgeLabel;resizable=0;html=1;align=right;verticalAlign=bottom;" connectable="0" vertex="1" parent="bFwT0Dd9p4AA57UiHMBd-49">
          <mxGeometry x="1" relative="1" as="geometry" />
        </mxCell>
        <mxCell id="bFwT0Dd9p4AA57UiHMBd-52" value="" style="endArrow=none;html=1;edgeStyle=orthogonalEdgeStyle;rounded=0;" edge="1" parent="1" source="bFwT0Dd9p4AA57UiHMBd-18" target="bFwT0Dd9p4AA57UiHMBd-10">
          <mxGeometry relative="1" as="geometry">
            <mxPoint x="-320" y="5420" as="sourcePoint" />
            <mxPoint x="-160" y="5420" as="targetPoint" />
          </mxGeometry>
        </mxCell>
        <mxCell id="bFwT0Dd9p4AA57UiHMBd-53" value="1..*" style="edgeLabel;resizable=0;html=1;align=left;verticalAlign=bottom;" connectable="0" vertex="1" parent="bFwT0Dd9p4AA57UiHMBd-52">
          <mxGeometry x="-1" relative="1" as="geometry">
            <mxPoint y="20" as="offset" />
          </mxGeometry>
        </mxCell>
        <mxCell id="bFwT0Dd9p4AA57UiHMBd-54" value="1..*" style="edgeLabel;resizable=0;html=1;align=right;verticalAlign=bottom;" connectable="0" vertex="1" parent="bFwT0Dd9p4AA57UiHMBd-52">
          <mxGeometry x="1" relative="1" as="geometry" />
        </mxCell>
        <mxCell id="bFwT0Dd9p4AA57UiHMBd-55" value="" style="endArrow=none;html=1;edgeStyle=orthogonalEdgeStyle;rounded=0;" edge="1" parent="1" source="bFwT0Dd9p4AA57UiHMBd-18" target="bFwT0Dd9p4AA57UiHMBd-14">
          <mxGeometry relative="1" as="geometry">
            <mxPoint x="10" y="5340" as="sourcePoint" />
            <mxPoint x="170" y="5340" as="targetPoint" />
            <Array as="points">
              <mxPoint x="-90" y="5310" />
              <mxPoint x="-90" y="5500" />
            </Array>
          </mxGeometry>
        </mxCell>
        <mxCell id="bFwT0Dd9p4AA57UiHMBd-56" value="1..*" style="edgeLabel;resizable=0;html=1;align=left;verticalAlign=bottom;" connectable="0" vertex="1" parent="bFwT0Dd9p4AA57UiHMBd-55">
          <mxGeometry x="-1" relative="1" as="geometry" />
        </mxCell>
        <mxCell id="bFwT0Dd9p4AA57UiHMBd-57" value="1..*" style="edgeLabel;resizable=0;html=1;align=right;verticalAlign=bottom;" connectable="0" vertex="1" parent="bFwT0Dd9p4AA57UiHMBd-55">
          <mxGeometry x="1" relative="1" as="geometry" />
        </mxCell>
        <mxCell id="bFwT0Dd9p4AA57UiHMBd-58" value="" style="endArrow=none;html=1;edgeStyle=orthogonalEdgeStyle;rounded=0;" edge="1" parent="1" source="bFwT0Dd9p4AA57UiHMBd-21" target="bFwT0Dd9p4AA57UiHMBd-18">
          <mxGeometry relative="1" as="geometry">
            <mxPoint x="-460" y="5400" as="sourcePoint" />
            <mxPoint x="-300" y="5400" as="targetPoint" />
            <Array as="points">
              <mxPoint x="-460" y="5915" />
              <mxPoint x="-460" y="5230" />
            </Array>
          </mxGeometry>
        </mxCell>
        <mxCell id="bFwT0Dd9p4AA57UiHMBd-59" value="1..*" style="edgeLabel;resizable=0;html=1;align=left;verticalAlign=bottom;" connectable="0" vertex="1" parent="bFwT0Dd9p4AA57UiHMBd-58">
          <mxGeometry x="-1" relative="1" as="geometry">
            <mxPoint x="-30" as="offset" />
          </mxGeometry>
        </mxCell>
        <mxCell id="bFwT0Dd9p4AA57UiHMBd-60" value="1..*&amp;nbsp;" style="edgeLabel;resizable=0;html=1;align=right;verticalAlign=bottom;" connectable="0" vertex="1" parent="bFwT0Dd9p4AA57UiHMBd-58">
          <mxGeometry x="1" relative="1" as="geometry" />
        </mxCell>
        <mxCell id="bFwT0Dd9p4AA57UiHMBd-61" value="" style="endArrow=none;html=1;edgeStyle=orthogonalEdgeStyle;rounded=0;" edge="1" parent="1" source="bFwT0Dd9p4AA57UiHMBd-33" target="bFwT0Dd9p4AA57UiHMBd-19">
          <mxGeometry relative="1" as="geometry">
            <mxPoint x="-520" y="5370" as="sourcePoint" />
            <mxPoint x="-320" y="5330" as="targetPoint" />
            <Array as="points">
              <mxPoint x="-490" y="5889" />
              <mxPoint x="-490" y="5320" />
            </Array>
          </mxGeometry>
        </mxCell>
        <mxCell id="bFwT0Dd9p4AA57UiHMBd-62" value="1..*" style="edgeLabel;resizable=0;html=1;align=left;verticalAlign=bottom;" connectable="0" vertex="1" parent="bFwT0Dd9p4AA57UiHMBd-61">
          <mxGeometry x="-1" relative="1" as="geometry" />
        </mxCell>
        <mxCell id="bFwT0Dd9p4AA57UiHMBd-63" value="2..*" style="edgeLabel;resizable=0;html=1;align=right;verticalAlign=bottom;" connectable="0" vertex="1" parent="bFwT0Dd9p4AA57UiHMBd-61">
          <mxGeometry x="1" relative="1" as="geometry">
            <mxPoint x="-10" as="offset" />
          </mxGeometry>
        </mxCell>
        <mxCell id="bFwT0Dd9p4AA57UiHMBd-64" value="" style="endArrow=none;html=1;edgeStyle=orthogonalEdgeStyle;rounded=0;" edge="1" parent="1" source="bFwT0Dd9p4AA57UiHMBd-22" target="bFwT0Dd9p4AA57UiHMBd-26">
          <mxGeometry relative="1" as="geometry">
            <mxPoint x="-230" y="5888.44" as="sourcePoint" />
            <mxPoint x="-70" y="5888.44" as="targetPoint" />
            <Array as="points">
              <mxPoint x="-170" y="5908" />
              <mxPoint x="-170" y="5908" />
            </Array>
          </mxGeometry>
        </mxCell>
        <mxCell id="bFwT0Dd9p4AA57UiHMBd-65" value="1..*" style="edgeLabel;resizable=0;html=1;align=left;verticalAlign=bottom;" connectable="0" vertex="1" parent="bFwT0Dd9p4AA57UiHMBd-64">
          <mxGeometry x="-1" relative="1" as="geometry" />
        </mxCell>
        <mxCell id="bFwT0Dd9p4AA57UiHMBd-66" value="1..*" style="edgeLabel;resizable=0;html=1;align=right;verticalAlign=bottom;" connectable="0" vertex="1" parent="bFwT0Dd9p4AA57UiHMBd-64">
          <mxGeometry x="1" relative="1" as="geometry" />
        </mxCell>
        <mxCell id="bFwT0Dd9p4AA57UiHMBd-67" value="" style="endArrow=none;html=1;edgeStyle=orthogonalEdgeStyle;rounded=0;" edge="1" parent="1" source="bFwT0Dd9p4AA57UiHMBd-17" target="bFwT0Dd9p4AA57UiHMBd-25">
          <mxGeometry relative="1" as="geometry">
            <mxPoint x="80" y="5770" as="sourcePoint" />
            <mxPoint x="240" y="5770" as="targetPoint" />
          </mxGeometry>
        </mxCell>
        <mxCell id="bFwT0Dd9p4AA57UiHMBd-68" value="1..*" style="edgeLabel;resizable=0;html=1;align=left;verticalAlign=bottom;" connectable="0" vertex="1" parent="bFwT0Dd9p4AA57UiHMBd-67">
          <mxGeometry x="-1" relative="1" as="geometry">
            <mxPoint x="-20" as="offset" />
          </mxGeometry>
        </mxCell>
        <mxCell id="bFwT0Dd9p4AA57UiHMBd-69" value="0..*" style="edgeLabel;resizable=0;html=1;align=right;verticalAlign=bottom;" connectable="0" vertex="1" parent="bFwT0Dd9p4AA57UiHMBd-67">
          <mxGeometry x="1" relative="1" as="geometry" />
        </mxCell>
        <mxCell id="bFwT0Dd9p4AA57UiHMBd-70" value="" style="endArrow=none;html=1;edgeStyle=orthogonalEdgeStyle;rounded=0;" edge="1" parent="1" source="bFwT0Dd9p4AA57UiHMBd-29" target="bFwT0Dd9p4AA57UiHMBd-14">
          <mxGeometry relative="1" as="geometry">
            <mxPoint x="-60" y="5430" as="sourcePoint" />
            <mxPoint x="100" y="5430" as="targetPoint" />
            <Array as="points">
              <mxPoint x="50" y="5460" />
              <mxPoint x="50" y="5460" />
            </Array>
          </mxGeometry>
        </mxCell>
        <mxCell id="bFwT0Dd9p4AA57UiHMBd-71" value="0..*" style="edgeLabel;resizable=0;html=1;align=left;verticalAlign=bottom;" connectable="0" vertex="1" parent="bFwT0Dd9p4AA57UiHMBd-70">
          <mxGeometry x="-1" relative="1" as="geometry">
            <mxPoint y="20" as="offset" />
          </mxGeometry>
        </mxCell>
        <mxCell id="bFwT0Dd9p4AA57UiHMBd-72" value="1" style="edgeLabel;resizable=0;html=1;align=right;verticalAlign=bottom;" connectable="0" vertex="1" parent="bFwT0Dd9p4AA57UiHMBd-70">
          <mxGeometry x="1" relative="1" as="geometry" />
        </mxCell>
        <mxCell id="bFwT0Dd9p4AA57UiHMBd-73" value="" style="endArrow=none;html=1;edgeStyle=orthogonalEdgeStyle;rounded=0;" edge="1" parent="1" source="bFwT0Dd9p4AA57UiHMBd-21" target="bFwT0Dd9p4AA57UiHMBd-30">
          <mxGeometry relative="1" as="geometry">
            <mxPoint x="-190" y="5460" as="sourcePoint" />
            <mxPoint x="-120" y="5450" as="targetPoint" />
            <Array as="points">
              <mxPoint x="-160" y="5830" />
              <mxPoint x="-160" y="5268" />
            </Array>
          </mxGeometry>
        </mxCell>
        <mxCell id="bFwT0Dd9p4AA57UiHMBd-74" value="1" style="edgeLabel;resizable=0;html=1;align=left;verticalAlign=bottom;" connectable="0" vertex="1" parent="bFwT0Dd9p4AA57UiHMBd-73">
          <mxGeometry x="-1" relative="1" as="geometry" />
        </mxCell>
        <mxCell id="bFwT0Dd9p4AA57UiHMBd-75" value="0..*" style="edgeLabel;resizable=0;html=1;align=right;verticalAlign=bottom;" connectable="0" vertex="1" parent="bFwT0Dd9p4AA57UiHMBd-73">
          <mxGeometry x="1" relative="1" as="geometry" />
        </mxCell>
        <mxCell id="bFwT0Dd9p4AA57UiHMBd-76" value="" style="endArrow=none;html=1;edgeStyle=orthogonalEdgeStyle;rounded=0;" edge="1" parent="1" source="bFwT0Dd9p4AA57UiHMBd-33" target="bFwT0Dd9p4AA57UiHMBd-30">
          <mxGeometry relative="1" as="geometry">
            <mxPoint x="-740" y="5730" as="sourcePoint" />
            <mxPoint x="-540" y="5410" as="targetPoint" />
            <Array as="points">
              <mxPoint x="-590" y="5420" />
              <mxPoint x="-60" y="5420" />
              <mxPoint x="-60" y="5310" />
            </Array>
          </mxGeometry>
        </mxCell>
        <mxCell id="bFwT0Dd9p4AA57UiHMBd-77" value="1" style="edgeLabel;resizable=0;html=1;align=left;verticalAlign=bottom;" connectable="0" vertex="1" parent="bFwT0Dd9p4AA57UiHMBd-76">
          <mxGeometry x="-1" relative="1" as="geometry" />
        </mxCell>
        <mxCell id="bFwT0Dd9p4AA57UiHMBd-78" value="1..*" style="edgeLabel;resizable=0;html=1;align=right;verticalAlign=bottom;" connectable="0" vertex="1" parent="bFwT0Dd9p4AA57UiHMBd-76">
          <mxGeometry x="1" relative="1" as="geometry" />
        </mxCell>
        <mxCell id="bFwT0Dd9p4AA57UiHMBd-79" value="&lt;font style=&quot;font-size: 50px;&quot;&gt;DIAGRAMME DE CLASSE&lt;br&gt;&lt;/font&gt;" style="text;html=1;align=center;verticalAlign=middle;resizable=0;points=[];autosize=1;strokeColor=none;fillColor=none;" vertex="1" parent="1">
          <mxGeometry x="-1475" y="4838" width="630" height="70" as="geometry" />
        </mxCell>
      </root>
    </mxGraphModel>
  </diagram>
</mxfile>
